<svg xmlns="http://www.w3.org/2000/svg" version="1.1" xmlns:xlink="http://www.w3.org/1999/xlink" xmlns:svgjs="http://svgjs.dev/svgjs" viewBox="0 0 1422 800"><defs><linearGradient x1="50%" y1="0%" x2="50%" y2="100%" id="ccchaos-grad"><stop stop-color="hsl(230, 55%, 50%)" stop-opacity="1" offset="0%"></stop><stop stop-color="hsl(230, 55%, 70%)" stop-opacity="1" offset="100%"></stop></linearGradient></defs><g stroke-width="1" stroke="url(#ccchaos-grad)" fill="none" stroke-linecap="round"><path d="M710.01 94.43C720.84 93 731.53 91.65 742.07 90.54 752.62 89.27 763.01 88.55 773.23 88.53 783.45 88.79 793.49 89.99 803.33 92.15 813.18 94.82 822.83 98.49 832.26 103.09 841.69 108.11 850.9 113.91 859.86 120.35 868.83 126.97 877.55 134.03 886 141.42 894.45 148.72 902.62 156.2 910.49 163.79 918.36 171.15 925.93 178.58 933.15 186.06 940.36 193.3 947.23 200.62 953.72 208.05 960.19 215.3 966.28 222.73 971.95 230.36 977.59 237.9 982.81 245.7 987.58 253.78 992.32 261.84 996.61 270.21 1000.43 278.89 1004.23 287.58 1007.57 296.6 1010.42 305.93 1013.28 315.27 1015.66 324.92 1017.57 334.85 1019.5 344.79 1020.96 355 1021.94 365.44 1022.96 375.89 1023.5 386.57 1023.54 397.45 1023.63 408.32 1023.21 419.14 1022.31 429.85 1021.42 440.57 1020.03 451.18 1018.15 461.66 1016.27 472.13 1013.88 482.47 1011 492.65 1008.09 502.81 1004.69 512.8 1000.8 522.58 996.88 532.33 992.48 541.87 987.63 551.14 982.75 560.37 977.43 569.32 971.69 577.94 965.93 586.5 959.77 594.72 953.23 602.55 946.69 610.3 939.79 617.66 932.55 624.59 925.32 631.43 917.76 637.86 909.9 643.84 902.05 649.77 893.91 655.28 885.49 660.38 877.09 665.48 868.41 670.2 859.49 674.55 850.57 678.97 841.41 683.05 832.03 686.79 822.65 690.65 813.04 694.19 803.23 697.37 793.42 700.68 783.41 703.61 773.22 706.14 763.03 708.71 752.65 710.83 742.12 712.41 731.59 713.96 720.9 714.92 710.08 715.23 699.26 715.42 688.56 714.92 678.02 713.78 667.47 712.49 657.07 710.58 646.85 708.08 636.64 705.51 626.6 702.42 616.78 698.84 606.95 695.29 597.34 691.32 587.97 686.98 578.6 682.74 569.47 678.16 560.62 673.27 551.77 668.5 543.2 663.43 534.93 658.06 526.66 652.79 518.7 647.2 511.07 641.29 503.44 635.43 496.14 629.22 489.19 622.66 482.25 616.09 475.64 609.14 469.41 601.83 463.16 594.48 457.28 586.75 451.77 578.67 446.24 570.52 441.08 562.03 436.31 553.22 431.5 544.36 427.08 535.19 423.07 525.75 419.03 516.27 415.39 506.55 412.19 496.61 408.96 486.64 406.19 476.48 403.89 466.16 401.6 455.82 399.8 445.34 398.54 434.75 397.31 424.15 396.63 413.45 396.54 402.69 396.5 391.93 397.05 381.36 398.17 371.02 399.34 360.68 401.06 350.56 403.31 340.68 405.58 330.8 408.36 321.15 411.61 311.75 414.86 302.33 418.57 293.14 422.7 284.17 426.81 275.16 431.34 266.33 436.25 257.69 441.13 248.96 446.4 240.36 452.03 231.89 457.62 223.28 463.59 214.76 469.89 206.34 476.18 197.76 482.82 189.27 489.79 180.93 496.75 172.48 504.05 164.23 511.66 156.26 519.27 148.34 527.2 140.82 535.43 133.84 543.66 127.1 552.19 121.04 560.99 115.77 569.79 110.92 578.87 106.93 588.19 103.84 597.52 101.17 607.09 99.34 616.88 98.28 626.66 97.37 636.67 97.01 646.86 97.06 657.05 96.85 667.42 96.76 677.96 96.71 688.49 96.06 699.18 95.29 710 94.43" stroke-dasharray="0 0" transform="rotate(0, 711, 400)" opacity="0.05"></path><path d="M710.28 122.65C720.12 121.41 729.85 120.3 739.44 119.41 749.04 118.36 758.5 117.77 767.81 117.73 777.11 117.86 786.26 118.74 795.24 120.4 804.21 122.44 813.01 125.32 821.6 129 830.19 133.06 838.58 137.86 846.75 143.3 854.92 148.98 862.85 155.17 870.54 161.78 878.22 168.43 885.65 175.38 892.79 182.55 899.93 189.61 906.77 196.83 913.31 204.15 919.83 211.31 926.03 218.57 931.88 225.93 937.72 233.12 943.2 240.44 948.3 247.88 953.38 255.21 958.08 262.7 962.38 270.38 966.65 277.99 970.52 285.81 973.97 293.86 977.41 301.87 980.44 310.13 983.03 318.63 985.63 327.11 987.81 335.85 989.55 344.81 991.32 353.78 992.66 362.98 993.56 372.4 994.5 381.81 995 391.44 995.04 401.25 995.12 411.07 994.74 420.83 993.9 430.5 993.1 440.17 991.83 449.76 990.12 459.21 988.41 468.66 986.24 477.98 983.63 487.13 981.01 496.26 977.94 505.21 974.44 513.95 970.92 522.66 966.96 531.14 962.6 539.37 958.2 547.54 953.41 555.43 948.23 563.02 943.04 570.54 937.47 577.74 931.56 584.6 925.64 591.38 919.38 597.82 912.81 603.89 906.23 609.91 899.35 615.57 892.2 620.85 885.04 626.14 877.61 631.07 869.93 635.67 862.26 640.3 854.34 644.63 846.19 648.64 838.05 652.74 829.68 656.56 821.11 660.07 812.55 663.71 803.78 667.05 794.83 670.07 785.89 673.2 776.76 675.98 767.47 678.37 758.18 680.8 748.74 682.8 739.15 684.31 729.57 685.77 719.84 686.69 710.01 687.01 700.17 687.22 690.45 686.8 680.87 685.77 671.29 684.62 661.86 682.88 652.59 680.6 643.33 678.23 634.23 675.37 625.33 672.06 616.43 668.74 607.72 665.02 599.24 660.95 590.76 656.94 582.5 652.61 574.49 647.99 566.48 643.48 558.73 638.69 551.24 633.65 543.75 628.71 536.54 623.49 529.62 618.02 522.7 612.62 516.07 606.94 509.75 600.97 503.43 595.04 497.41 588.8 491.72 582.27 486.01 575.73 480.63 568.88 475.58 561.73 470.51 554.55 465.77 547.07 461.39 539.3 456.98 531.5 452.92 523.42 449.23 515.08 445.52 506.72 442.19 498.11 439.26 489.29 436.31 480.45 433.78 471.4 431.7 462.19 429.61 452.96 427.99 443.58 426.85 434.06 425.73 424.54 425.12 414.9 425.04 405.17 425 395.44 425.5 385.84 426.51 376.41 427.55 366.97 429.11 357.69 431.13 348.58 433.19 339.46 435.71 330.49 438.66 321.69 441.61 312.86 444.99 304.18 448.77 295.65 452.53 287.06 456.67 278.6 461.17 270.26 465.65 261.84 470.48 253.53 475.65 245.34 480.79 237.05 486.26 228.88 492.04 220.86 497.8 212.76 503.88 204.84 510.26 197.15 516.61 189.47 523.27 182.09 530.21 175.08 537.15 168.21 544.36 161.82 551.84 155.99 559.32 150.43 567.06 145.51 575.05 141.31 583.04 137.44 591.27 134.3 599.73 131.9 608.18 129.76 616.86 128.27 625.73 127.36 634.61 126.5 643.68 126.03 652.93 125.88 662.18 125.47 671.59 125.17 681.16 124.92 690.73 124.19 700.44 123.43 710.28 122.65" stroke-dasharray="0 0" transform="rotate(0, 711, 400)" opacity="0.15"></path><path d="M710.78 150.87C719.64 149.81 728.4 148.91 737.04 148.22 745.68 147.38 754.2 146.92 762.58 146.9 770.97 146.97 779.21 147.63 787.29 148.92 795.37 150.45 803.3 152.68 811.03 155.58 818.77 158.78 826.32 162.63 833.66 167.08 841.01 171.77 848.14 176.98 855.04 182.64 861.93 188.42 868.59 194.56 874.98 201 881.37 207.45 887.5 214.12 893.34 220.97 899.16 227.76 904.7 234.69 909.92 241.73 915.12 248.68 920.01 255.75 924.55 262.92 929.09 270 933.28 277.2 937.11 284.52 940.94 291.78 944.4 299.18 947.49 306.72 950.58 314.22 953.31 321.89 955.65 329.71 957.99 337.52 959.97 345.5 961.55 353.64 963.15 361.78 964.37 370.1 965.2 378.57 966.05 387.04 966.5 395.67 966.54 404.44 966.61 413.22 966.26 421.92 965.51 430.53 964.77 439.13 963.62 447.64 962.08 456.01 960.54 464.37 958.59 472.59 956.25 480.64 953.91 488.68 951.16 496.53 948.04 504.18 944.9 511.79 941.37 519.19 937.48 526.33 933.57 533.44 929.3 540.3 924.68 546.87 920.05 553.4 915.08 559.65 909.8 565.6 904.51 571.52 898.9 577.14 893.01 582.45 887.12 587.75 880.94 592.76 874.51 597.47 868.07 602.21 861.38 606.68 854.47 610.86 847.55 615.1 840.41 619.09 833.06 622.82 825.71 626.64 818.16 630.22 810.43 633.53 802.7 636.94 794.78 640.08 786.71 642.93 778.64 645.86 770.4 648.46 762.03 650.71 753.65 652.97 745.14 654.83 736.5 656.24 727.86 657.6 719.11 658.46 710.26 658.79 701.4 659.01 692.66 658.66 684.05 657.77 675.44 656.75 666.96 655.2 658.64 653.15 650.31 651.02 642.15 648.42 634.15 645.4 626.17 642.35 618.35 638.92 610.74 635.16 603.13 631.42 595.72 627.38 588.53 623.06 581.34 618.82 574.37 614.32 567.64 609.59 560.91 604.94 554.42 600.06 548.19 594.96 541.95 589.94 535.97 584.69 530.26 579.21 524.55 573.79 519.1 568.12 513.94 562.21 508.77 556.34 503.88 550.2 499.29 543.83 494.69 537.46 490.38 530.84 486.4 523.98 482.39 517.11 478.7 510 475.35 502.66 471.99 495.31 468.97 487.73 466.32 479.95 463.66 472.16 461.38 464.18 459.5 456.01 457.63 447.84 456.17 439.5 455.16 431.01 454.16 422.53 453.61 413.89 453.54 405.13 453.5 396.37 453.94 387.69 454.84 379.11 455.77 370.52 457.16 362.03 458.97 353.64 460.81 345.25 463.06 336.95 465.71 328.76 468.37 320.54 471.41 312.42 474.81 304.42 478.2 296.37 481.95 288.42 486.03 280.59 490.09 272.72 494.48 264.97 499.16 257.35 503.83 249.71 508.81 242.23 514.06 234.95 519.29 227.68 524.81 220.65 530.59 213.91 536.35 207.26 542.39 200.96 548.67 195.08 554.94 189.36 561.46 184.12 568.21 179.42 574.96 174.94 581.94 171.04 589.13 167.73 596.33 164.66 603.74 162.17 611.35 160.26 618.95 158.48 626.76 157.19 634.74 156.34 642.72 155.45 650.88 154.87 659.19 154.53 667.51 153.94 675.98 153.47 684.58 153.08 693.19 152.31 701.93 151.57 710.78 150.87" stroke-dasharray="0 0" transform="rotate(0, 711, 400)" opacity="0.24"></path><path d="M711.36 179.09C719.23 178.2 727.01 177.48 734.69 176.97 742.37 176.33 749.94 176 757.39 176.03 764.84 176.09 772.16 176.61 779.34 177.62 786.52 178.78 793.55 180.49 800.41 182.75 807.27 185.22 813.97 188.23 820.47 191.77 826.98 195.51 833.29 199.73 839.39 204.39 845.48 209.19 851.37 214.38 857.01 219.89 862.65 225.47 868.06 231.33 873.2 237.42 878.34 243.51 883.21 249.8 887.81 256.25 892.4 262.67 896.71 269.22 900.72 275.9 904.72 282.52 908.42 289.27 911.81 296.11 915.19 302.91 918.26 309.82 921.01 316.83 923.76 323.8 926.18 330.89 928.27 338.08 930.37 345.25 932.13 352.54 933.55 359.93 934.99 367.31 936.09 374.8 936.83 382.4 937.6 389.99 938.01 397.68 938.04 405.46 938.1 413.25 937.79 420.93 937.11 428.5 936.45 436.07 935.42 443.51 934.04 450.82 932.67 458.12 930.94 465.27 928.87 472.25 926.79 479.22 924.36 486.02 921.6 492.61 918.83 499.19 915.72 505.57 912.29 511.73 908.85 517.87 905.09 523.78 901.03 529.46 896.95 535.12 892.58 540.55 887.92 545.72 883.25 550.9 878.31 555.84 873.11 560.53 867.9 565.25 862.44 569.73 856.75 573.97 851.05 578.26 845.12 582.33 838.99 586.17 832.85 590.08 826.51 593.77 819.98 597.24 813.45 600.79 806.74 604.13 799.86 607.22 792.98 610.39 785.94 613.32 778.75 615.97 771.57 618.67 764.24 621.07 756.79 623.14 749.34 625.21 741.76 626.91 734.08 628.21 726.4 629.45 718.62 630.25 710.75 630.58 702.88 630.8 695.11 630.52 687.46 629.76 679.81 628.88 672.28 627.53 664.89 625.74 657.5 623.85 650.24 621.55 643.15 618.85 636.06 616.12 629.12 613.02 622.36 609.6 615.6 606.19 609.01 602.48 602.62 598.51 596.23 594.58 590.02 590.41 584.03 586.02 578.04 581.69 572.25 577.15 566.69 572.41 561.12 567.74 555.77 562.87 550.67 557.81 545.55 552.81 540.67 547.61 536.05 542.22 531.41 536.88 527.02 531.33 522.9 525.59 518.77 519.87 514.91 513.95 511.33 507.84 507.74 501.74 504.43 495.44 501.43 488.94 498.43 482.45 495.73 475.77 493.37 468.9 491 462.04 488.97 454.99 487.31 447.77 485.65 440.56 484.36 433.18 483.46 425.64 482.58 418.11 482.1 410.42 482.04 402.59 482.01 394.76 482.39 386.98 483.19 379.25 484 371.52 485.22 363.85 486.82 356.25 488.43 348.64 490.43 341.1 492.77 333.65 495.12 326.19 497.82 318.8 500.84 311.53 503.87 304.24 507.21 297.05 510.84 290 514.47 282.95 518.4 276.03 522.59 269.3 526.78 262.59 531.23 256.07 535.94 249.8 540.63 243.58 545.58 237.64 550.76 232.01 555.93 226.5 561.33 221.34 566.95 216.58 572.56 211.97 578.4 207.78 584.43 204.07 590.46 200.51 596.69 197.42 603.11 194.82 609.53 192.34 616.14 190.32 622.91 188.72 629.69 187.17 636.64 185.99 643.74 185.13 650.84 184.2 658.1 183.49 665.49 182.99 672.88 182.28 680.41 181.68 688.06 181.19 695.71 180.41 703.48 179.7 711.36 179.09" stroke-dasharray="0 0" transform="rotate(0, 711, 400)" opacity="0.33"></path><path d="M711.81 207.31C718.69 206.57 725.5 206.02 732.22 205.66 738.93 205.19 745.55 204.99 752.06 205.08 758.57 205.16 764.96 205.6 771.23 206.42 777.49 207.32 783.62 208.65 789.6 210.4 795.59 212.28 801.42 214.61 807.08 217.36 812.74 220.26 818.23 223.57 823.53 227.27 828.83 231.1 833.94 235.29 838.85 239.79 843.75 244.39 848.44 249.27 852.9 254.41 857.36 259.6 861.6 265 865.59 270.6 869.58 276.21 873.32 281.98 876.81 287.9 880.29 293.81 883.52 299.85 886.48 306 889.43 312.13 892.12 318.37 894.53 324.69 896.94 331 899.07 337.4 900.91 343.87 902.75 350.33 904.31 356.87 905.57 363.48 906.84 370.07 907.81 376.75 908.47 383.47 909.15 390.2 909.51 396.99 909.54 403.82 909.59 410.65 909.31 417.37 908.72 423.96 908.13 430.55 907.23 437.01 906.01 443.33 904.81 449.65 903.29 455.82 901.47 461.83 899.66 467.84 897.54 473.69 895.13 479.36 892.72 485.03 890.02 490.53 887.04 495.83 884.06 501.14 880.8 506.27 877.27 511.19 873.74 516.13 869.95 520.88 865.91 525.43 861.86 530 857.57 534.39 853.06 538.57 848.54 542.8 843.8 546.84 838.85 550.68 833.89 554.58 828.74 558.3 823.39 561.82 818.05 565.41 812.52 568.81 806.82 572.02 801.12 575.28 795.26 578.35 789.26 581.2 783.25 584.1 777.09 586.77 770.81 589.19 764.53 591.64 758.12 593.81 751.6 595.67 745.09 597.53 738.46 599.05 731.74 600.21 725.02 601.33 718.21 602.05 711.32 602.36 704.43 602.58 697.64 602.37 690.94 601.73 684.25 601.01 677.66 599.86 671.19 598.32 664.72 596.71 658.37 594.72 652.16 592.38 645.95 589.98 639.87 587.26 633.94 584.25 628.02 581.21 622.24 577.9 616.63 574.34 611.02 570.79 605.57 567.01 600.3 563.02 595.03 559.06 589.94 554.91 585.04 550.57 580.14 546.28 575.43 541.81 570.92 537.17 566.41 532.59 562.1 527.83 558.02 522.91 553.92 518.04 550.05 513 546.41 507.81 542.77 502.65 539.36 497.32 536.2 491.84 533.04 486.38 530.13 480.76 527.49 474.99 524.85 469.23 522.48 463.31 520.41 457.24 518.34 451.18 516.57 444.96 515.12 438.6 513.68 432.25 512.56 425.74 511.78 419.1 511.01 412.47 510.59 405.69 510.54 398.79 510.51 391.88 510.84 385.01 511.53 378.2 512.24 371.37 513.29 364.6 514.68 357.9 516.08 351.19 517.81 344.56 519.84 338.01 521.89 331.46 524.24 325.01 526.88 318.67 529.52 312.34 532.45 306.13 535.63 300.08 538.82 294.05 542.26 288.18 545.95 282.51 549.63 276.89 553.55 271.48 557.7 266.32 561.84 261.22 566.2 256.4 570.76 251.88 575.32 247.45 580.09 243.34 585.04 239.58 589.99 235.93 595.13 232.63 600.45 229.7 605.76 226.87 611.24 224.4 616.89 222.29 622.53 220.24 628.34 218.52 634.29 217.12 640.24 215.71 646.34 214.57 652.57 213.68 658.8 212.69 665.16 211.89 671.64 211.27 678.12 210.47 684.72 209.8 691.42 209.26 698.12 208.49 704.92 207.84 711.81 207.31" stroke-dasharray="0 0" transform="rotate(0, 711, 400)" opacity="0.43"></path><path d="M711.99 235.52C723.8 234.21 735.33 233.68 746.46 234.03 757.59 234.26 768.32 235.7 778.53 238.38 788.73 241.35 798.41 245.7 807.45 251.33 816.48 257.31 824.85 264.51 832.46 272.69 840.06 281.11 846.9 290.38 852.86 300.29 858.82 310.27 863.92 320.8 868.06 331.72 872.22 342.62 875.43 353.88 877.6 365.36 879.81 376.82 881 388.51 881.04 400.31 881.14 412.11 880.09 423.47 877.99 434.31 875.92 445.16 872.77 455.5 868.65 465.25 864.53 475.04 859.42 484.26 853.43 492.85 847.41 501.52 840.51 509.62 832.84 517.06 825.15 524.66 816.7 531.67 807.6 538.01 798.49 544.54 788.74 550.41 778.48 555.48 768.22 560.68 757.45 565.01 746.29 568.29 735.13 571.49 723.59 573.51 711.79 574.14 699.98 574.5 688.47 573.37 677.36 570.9 666.26 568.16 655.55 564.14 645.36 559.02 635.16 553.78 625.46 547.57 616.38 540.55 607.28 533.57 598.79 525.85 591.01 517.53 583.21 509.32 576.11 500.51 569.83 491.2 563.53 481.99 558.06 472.23 553.53 462.02 548.99 451.86 545.42 441.2 542.94 430.1 540.48 419.02 539.14 407.49 539.04 395.57 539 383.66 540.2 371.93 542.55 360.51 544.93 349.1 548.44 338.03 552.93 327.46 557.45 316.96 562.94 307.02 569.27 297.84 575.6 288.81 582.76 280.63 590.63 273.47 598.49 266.54 607.06 260.67 616.23 255.94 625.39 251.37 635.15 247.82 645.4 245.28 655.65 242.59 666.39 240.63 677.53 239.37 688.66 237.57 700.19 236.27 711.99 235.52" stroke-dasharray="0 0" transform="rotate(0, 711, 400)" opacity="0.53"></path><path d="M711.85 263.74C721.69 262.73 731.28 262.43 740.54 262.86 749.79 263.16 758.7 264.39 767.18 266.55 775.65 268.82 783.68 272.13 791.17 276.41 798.66 280.89 805.61 286.35 811.93 292.65 818.25 299.12 823.94 306.36 828.91 314.22 833.88 322.18 838.15 330.68 841.62 339.6 845.11 348.54 847.81 357.85 849.64 367.4 851.5 376.95 852.5 386.74 852.54 396.64 852.62 406.55 851.74 416.11 849.97 425.27 848.23 434.44 845.6 443.22 842.17 451.54 838.74 459.9 834.49 467.84 829.51 475.28 824.53 482.8 818.82 489.87 812.47 496.42 806.11 503.09 799.11 509.25 791.58 514.85 784.04 520.54 775.96 525.65 767.45 530.06 758.93 534.51 749.99 538.19 740.71 540.97 731.44 543.67 721.83 545.37 711.99 545.92 702.15 546.27 692.55 545.41 683.27 543.43 674 541.25 665.04 538 656.51 533.83 647.97 529.52 639.85 524.36 632.23 518.47 624.6 512.55 617.47 505.97 610.94 498.85 604.4 491.76 598.45 484.14 593.19 476.1 587.92 468.1 583.34 459.67 579.56 450.89 575.79 442.14 572.82 433.01 570.76 423.59 568.73 414.18 567.62 404.46 567.54 394.51 567.5 384.56 568.5 374.86 570.43 365.51 572.39 356.18 575.29 347.23 579.01 338.78 582.75 330.39 587.31 322.54 592.58 315.36 597.85 308.28 603.83 301.9 610.4 296.33 616.98 290.86 624.15 286.18 631.82 282.34 639.49 278.51 647.66 275.42 656.24 273.08 664.81 270.56 673.8 268.62 683.1 267.29 692.4 265.58 702.01 264.38 711.85 263.74" stroke-dasharray="0 0" transform="rotate(0, 711, 400)" opacity="0.62"></path><path d="M711.43 291.96C719.3 291.21 726.97 291.08 734.36 291.55 741.75 291.91 748.87 292.98 755.63 294.72 762.39 296.48 768.8 298.99 774.78 302.21 780.76 305.51 786.32 309.53 791.37 314.2 796.43 318.97 800.99 324.36 804.98 330.28 808.98 336.27 812.41 342.75 815.21 349.62 818.02 356.52 820.21 363.79 821.69 371.32 823.2 378.86 824.01 386.65 824.04 394.61 824.1 402.57 823.39 410.31 821.97 417.78 820.56 425.26 818.45 432.48 815.69 439.37 812.94 446.28 809.54 452.9 805.56 459.14 801.59 465.43 797.04 471.37 791.98 476.89 786.92 482.47 781.35 487.64 775.35 492.33 769.35 497.05 762.92 501.27 756.14 504.89 749.36 508.5 742.23 511.48 734.82 513.71 727.42 515.87 719.74 517.24 711.87 517.7 704 518.02 696.31 517.4 688.87 515.91 681.43 514.27 674.24 511.79 667.39 508.57 660.53 505.23 654 501.19 647.87 496.55 641.74 491.85 636.01 486.58 630.76 480.84 625.5 475.09 620.72 468.89 616.5 462.34 612.28 455.79 608.62 448.88 605.6 441.72 602.59 434.55 600.23 427.12 598.6 419.49 596.98 411.87 596.1 404.05 596.04 396.12 596.01 388.18 596.79 380.52 598.32 373.2 599.88 365.89 602.17 358.94 605.12 352.44 608.09 345.95 611.72 339.93 615.91 334.44 620.12 328.98 624.89 324.05 630.15 319.71 635.41 315.39 641.15 311.62 647.3 308.45 653.45 305.23 660 302.55 666.88 300.42 673.75 298.14 680.96 296.34 688.41 295.05 695.86 293.53 703.56 292.48 711.43 291.96" stroke-dasharray="0 0" transform="rotate(0, 711, 400)" opacity="0.71"></path><path d="M710.86 320.18C722.67 319.04 733.86 319.96 744.01 322.75 754.15 325.45 763.25 330.29 770.85 336.92 778.47 343.68 784.61 352.24 788.84 362.13 793.12 372.08 795.5 383.27 795.54 395.19 795.64 407.11 793.39 418.63 789.23 429.28 785.08 439.96 779 449.82 771.42 458.41 763.85 467.05 754.76 474.39 744.61 479.88 734.47 485.28 723.26 488.68 711.46 489.49 699.65 489.94 688.36 487.65 678.05 483.13 667.74 478.32 658.4 471.41 650.51 462.99 642.61 454.45 636.17 444.53 631.66 433.77 627.18 422.99 624.64 411.42 624.54 399.61 624.5 387.79 626.9 376.88 631.28 367.28 635.7 357.7 642.08 349.43 649.93 342.79 657.8 336.07 667.13 330.8 677.44 327.24 687.76 323.3 699.05 320.83 710.86 320.18" stroke-dasharray="0 0" transform="rotate(0, 711, 400)" opacity="0.81"></path><path d="M710.34 348.4C718.21 347.72 725.68 348.49 732.46 350.5 739.24 352.43 745.33 355.7 750.43 360.08 755.54 364.48 759.67 370.02 762.53 376.45 765.4 382.89 767.01 390.2 767.04 398.11 767.1 406.01 765.59 413.73 762.79 420.94 760.01 428.14 755.94 434.83 750.88 440.64 745.81 446.43 739.76 451.32 732.99 454.95 726.23 458.51 718.77 460.73 710.9 461.27 703.02 461.64 695.49 460.25 688.62 457.42 681.74 454.44 675.52 450.09 670.26 444.7 665.01 439.24 660.74 432.81 657.75 425.78 654.78 418.72 653.1 411.11 653.04 403.29 653.01 395.47 654.59 388.2 657.48 381.74 660.4 375.27 664.61 369.57 669.82 364.88 675.03 360.11 681.22 356.26 688.08 353.55 694.94 350.67 702.47 348.86 710.34 348.4" stroke-dasharray="0 0" transform="rotate(0, 711, 400)" opacity="0.91"></path></g></svg>