<svg xmlns="http://www.w3.org/2000/svg" version="1.1" xmlns:xlink="http://www.w3.org/1999/xlink" xmlns:svgjs="http://svgjs.dev/svgjs" viewBox="0 0 800 800"><defs><linearGradient x1="50%" y1="0%" x2="50%" y2="100%" id="ccchaos-grad"><stop stop-color="hsl(230, 55%, 50%)" stop-opacity="1" offset="0%"></stop><stop stop-color="hsl(230, 55%, 70%)" stop-opacity="1" offset="100%"></stop></linearGradient></defs><g stroke-width="2" stroke="url(#ccchaos-grad)" fill="none" stroke-linecap="round"><path d="M399.59 28.26Q409.74 31.81 419.89 34.98 430.05 38.02 440.22 41.18 450.41 44.72 460.6 48.84 470.8 53.69 481.02 59.37 491.25 65.87 501.5 73.14 511.75 81.05 522.02 89.39 532.31 97.96 542.6 106.51 552.91 114.81 563.23 122.64 573.56 129.83 583.9 136.3 594.25 141.99 604.6 146.94 614.96 151.25 625.32 155.07 635.69 158.59 646.05 162.05 656.42 165.66 666.78 169.62 677.14 174.1 687.5 179.23 697.84 185.06 708.18 191.59 718.51 198.76 728.83 206.44 728.93 218.35 728.99 230.26 728.99 242.16 728.94 254.07 728.83 265.98 728.68 277.89 728.5 289.8 728.29 301.71 728.06 313.62 727.83 325.53 727.61 337.44 727.4 349.35 727.23 361.25 727.11 373.16 727.02 385.07 727 396.98 727.02 408.89 727.1 420.8 727.22 432.71 727.39 444.62 727.59 456.53 727.81 468.43 728.04 480.34 728.27 492.25 728.48 504.16 728.67 516.07 728.82 527.98 728.93 539.89 728.99 551.79 728.99 563.7 728.94 575.61 728.84 587.52 718.52 592.73 708.2 598.2 697.86 603.96 687.51 610 677.16 616.31 666.8 622.84 656.44 629.52 646.08 636.28 635.71 643.04 625.35 649.72 614.98 656.26 604.62 662.61 594.27 668.74 583.92 674.64 573.58 680.32 563.25 685.82 552.92 691.19 542.61 696.48 532.31 701.75 522.03 707.07 511.76 712.48 501.5 718.03 491.25 723.74 481.02 729.62 470.8 735.66 460.59 741.84 450.39 748.13 440.21 754.47 430.04 760.83 419.87 767.17 409.72 773.44 399.57 779.63 389.22 773.98 378.87 768.25 368.54 762.41 358.21 756.43 347.89 750.31 337.59 744.06 327.3 737.7 317.02 731.26 306.75 724.8 296.5 718.36 286.26 712 276.03 705.77 265.81 699.7 255.61 693.82 245.42 688.13 235.25 682.64 225.08 677.3 214.92 672.08 204.77 666.9 194.62 661.72 184.48 656.44 174.35 651.01 164.21 645.37 154.08 639.5 143.94 633.36 133.8 626.97 123.66 620.36 113.51 613.6 103.36 606.74 93.2 599.88 83.02 593.1 72.84 586.49 72.94 574.54 72.99 562.59 72.99 550.64 72.93 538.69 72.82 526.74 72.67 514.79 72.48 502.84 72.27 490.89 72.04 478.94 71.81 466.99 71.59 455.04 71.39 443.09 71.22 431.14 71.1 419.19 71.02 407.24 71 395.29 71.02 383.34 71.11 371.4 71.23 359.45 71.4 347.5 71.61 335.55 71.83 323.6 72.06 311.65 72.29 299.7 72.5 287.75 72.68 275.8 72.83 263.85 72.94 251.9 72.99 239.95 72.99 228 72.93 216.05 72.83 204.1 83.01 199.61 93.18 195.61 103.34 191.93 113.5 188.37 123.64 184.73 133.78 180.78 143.92 176.36 154.05 171.3 164.19 165.53 174.32 159.01 184.46 151.8 194.6 143.99 204.75 135.76 214.9 127.3 225.06 118.84 235.23 110.61 245.41 102.84 255.6 95.69 265.81 89.28 276.02 83.68 286.25 78.86 296.5 74.74 306.75 71.17 317.02 67.93 327.3 64.79 337.6 61.49 347.91 57.81 358.22 53.52 368.55 48.47 378.89 42.58 394.41 32.04 399.59 28.26" stroke-dasharray="0 0" transform="rotate(0, 400, 400)" opacity="0.05"></path><path d="M399.02 75.23Q407.97 78.47 416.93 81.42 425.9 84.22 434.89 87.05 443.88 90.07 452.88 93.41 461.89 97.21 470.91 101.56 479.94 106.49 488.98 112.03 498.02 118.14 507.07 124.75 516.13 131.75 525.19 139.01 534.26 146.38 543.32 153.72 552.39 160.87 561.46 167.7 570.53 174.1 579.6 179.99 588.67 185.34 597.73 190.13 606.79 194.4 615.84 198.23 624.89 201.71 633.93 204.96 642.96 208.12 651.99 211.33 661 214.72 670.01 218.42 683.5 230.05 687.95 248.04 687.88 258.51 687.76 268.98 687.62 279.45 687.45 289.92 687.26 300.39 687.06 310.86 686.86 321.33 686.66 331.8 686.48 342.27 686.32 352.74 686.18 363.21 686.08 373.68 686.02 384.15 686 394.62 686.01 405.09 686.07 415.56 686.17 426.03 686.3 436.5 686.46 446.97 686.64 457.44 686.84 467.91 687.04 478.38 687.24 488.85 687.43 499.32 687.6 509.78 687.75 520.25 687.87 530.72 687.95 541.19 687.99 551.66 687.99 562.13 679.01 567.69 670.01 573.45 661.01 579.37 652 585.39 642.97 591.45 633.94 597.49 624.91 603.45 615.86 609.28 606.81 614.94 597.75 620.39 588.69 625.64 579.62 630.68 570.56 635.52 561.49 640.21 552.42 644.78 543.35 649.28 534.28 653.75 525.21 658.25 516.15 662.83 507.09 667.51 498.04 672.34 488.99 677.33 479.96 682.49 470.92 687.8 461.9 693.25 452.89 698.82 443.88 704.47 434.89 710.17 425.91 715.87 416.93 721.54 407.97 727.14 399.02 732.66 390.03 727.81 381.06 722.86 372.09 717.8 363.14 712.6 354.2 707.25 345.26 701.77 336.34 696.17 327.42 690.47 318.52 684.7 309.62 678.91 300.73 673.14 291.84 667.43 282.96 661.83 274.09 656.36 265.21 651.07 256.35 645.96 247.48 641.04 238.61 636.29 229.74 631.7 220.87 627.22 212 622.82 203.13 618.43 194.25 614.01 185.36 609.49 176.47 604.83 167.57 599.98 158.66 594.91 149.75 589.61 140.82 584.08 131.89 578.33 122.94 572.41 113.99 566.34 113.99 556.01 113.95 545.67 113.87 535.34 113.75 525 113.6 514.67 113.43 504.34 113.24 494 113.04 483.67 112.84 473.33 112.64 463 112.46 452.66 112.3 442.33 112.17 431.99 112.07 421.66 112.01 411.32 112 400.99 112.02 390.65 112.08 380.32 112.18 369.98 112.32 359.65 112.48 349.31 112.66 338.98 112.86 328.64 113.06 318.31 113.26 307.97 113.45 297.64 113.62 287.3 113.76 276.97 113.88 266.63 113.95 256.3 118.47 239.14 131.88 228.81 140.81 224.99 149.74 220.76 158.65 216.04 167.55 210.8 176.45 205.02 185.34 198.75 194.23 192.05 203.11 185.03 211.98 177.8 220.85 170.51 229.72 163.3 238.59 156.33 247.46 149.7 256.32 143.54 265.19 137.92 274.07 132.87 282.94 128.4 291.82 124.46 300.71 120.98 309.6 117.84 318.5 114.9 327.41 112.01 336.33 109.02 345.26 105.76 354.19 102.11 363.14 97.94 372.09 93.18 381.06 87.8 394.53 78.51 399.02 75.23" stroke-dasharray="0 0" transform="rotate(0, 400, 400)" opacity="0.19"></path><path d="M399.23 122.18Q414.73 127.69 430.25 132.82 445.78 138.26 461.32 144.43 469.1 148.1 476.87 152.17 484.65 156.66 492.42 161.56 500.19 166.84 507.96 172.46 515.73 178.34 523.5 184.42 531.26 190.61 539.01 196.81 546.76 202.94 554.51 208.91 562.25 214.65 569.99 220.1 577.71 225.2 585.43 229.92 600.85 238.07 616.24 245.21 631.6 251.18 646.94 256.9 646.86 265.79 646.76 274.68 646.64 283.57 646.5 292.47 646.34 301.36 646.17 310.25 646 319.14 645.83 328.03 645.66 336.92 645.5 345.81 645.36 354.71 645.23 363.6 645.13 372.49 645.06 381.38 645.01 390.27 645 399.16 645.01 408.05 645.05 416.95 645.12 425.84 645.22 434.73 645.34 443.62 645.48 452.51 645.64 461.4 645.81 470.3 645.98 479.19 646.15 488.08 646.32 496.97 646.48 505.86 646.62 514.75 646.75 523.65 643.06 539.64 631.6 552.02 623.93 557.22 616.24 562.3 608.56 567.24 600.86 572.01 593.15 576.6 585.44 581.01 569.99 589.25 554.52 597.09 539.03 604.56 523.51 612.04 507.98 619.86 492.44 628.05 484.67 632.39 476.89 636.88 469.12 641.5 461.35 646.25 453.57 651.11 445.8 656.04 438.03 661.03 430.27 666.04 422.51 671.03 414.75 675.99 399.31 681.26 384 677.45 376.38 673.17 368.77 668.77 361.16 664.24 353.55 659.58 345.95 654.8 338.34 649.91 330.74 644.93 323.14 639.88 315.54 634.81 307.94 629.73 300.34 624.68 292.73 619.7 285.12 614.82 277.51 610.06 269.9 605.45 262.28 600.99 247.02 592.65 231.74 584.75 216.43 577.35 201.1 570.04 185.73 562.49 170.34 554.56 158.74 543.69 154.74 528.29 154.61 519.52 154.47 510.74 154.31 501.96 154.14 493.18 153.97 484.4 153.8 475.62 153.63 466.84 153.47 458.07 153.33 449.29 153.21 440.51 153.11 431.73 153.04 422.95 153 414.17 152.99 405.4 153 396.62 153.05 387.84 153.12 379.06 153.22 370.28 153.35 361.5 153.49 352.73 153.65 343.95 153.82 335.17 153.99 326.39 154.16 317.61 154.33 308.83 154.49 300.06 154.63 291.28 154.75 282.5 158.75 267.19 170.35 256.03 178.05 251.03 185.74 245.69 193.42 240.06 201.1 234.2 208.77 228.16 216.43 222.04 224.08 215.92 231.73 209.89 239.37 204.02 247.01 198.4 254.64 193.08 262.26 188.13 277.49 179.58 292.71 172.19 307.92 166.33 323.12 160.96 338.32 155.55 353.53 149.55 368.75 141.89 383.98 132.98 395.42 124.98 399.23 122.18" stroke-dasharray="0 0" transform="rotate(0, 400, 400)" opacity="0.32"></path><path d="M400.05 169.14Q413.01 174 425.96 178.45 438.91 182.91 451.84 187.79 464.76 193.42 477.67 200.04 490.56 207.74 503.43 216.45 516.29 225.97 529.12 235.97 541.93 246.1 554.72 255.96 567.49 265.23 580.24 273.64 592.97 281.09 605.68 287.58 605.45 302.23 605.17 316.88 604.89 331.53 604.61 346.18 604.36 360.82 604.16 375.47 604.04 390.12 604 404.77 604.03 419.42 604.15 434.07 604.34 448.72 604.59 463.37 604.86 478.02 605.15 492.67 605.43 507.32 605.67 521.97 592.96 529.79 580.23 537.03 567.48 543.74 554.71 550.03 541.93 556.09 529.12 562.09 516.29 568.25 503.44 574.72 490.57 581.62 477.68 589 464.78 596.84 451.86 605.06 438.93 613.52 425.98 622.05 413.03 630.51 400.08 638.74 387.41 632.01 374.73 624.91 362.05 617.4 349.36 609.46 336.65 601.15 323.93 592.58 311.19 583.92 298.43 575.34 285.66 567.01 272.86 559.1 260.04 551.68 247.2 544.79 234.35 538.38 221.47 532.32 208.57 526.44 195.66 520.52 195.42 505.81 195.14 491.1 194.85 476.39 194.58 461.68 194.33 446.98 194.14 432.27 194.02 417.56 193.99 402.85 194.03 388.15 194.15 373.44 194.35 358.73 194.6 344.02 194.88 329.32 195.16 314.61 195.44 299.9 195.67 285.2 208.58 275.42 221.48 265.41 234.35 255.55 247.21 246.18 260.04 237.6 272.86 229.99 285.65 223.41 298.43 217.77 311.18 212.83 323.92 208.26 336.63 203.67 349.34 198.66 362.03 192.87 374.71 186.07 393.72 173.64 400.05 169.14" stroke-dasharray="0 0" transform="rotate(0, 400, 400)" opacity="0.46"></path><path d="M400.83 216.1Q411.14 220.16 421.43 223.93 431.72 227.61 441.99 231.39 452.24 235.47 462.49 240.01 472.72 245.12 482.94 250.87 493.14 257.25 503.33 264.22 513.51 271.67 523.68 279.45 533.85 287.39 544 295.3 554.15 303.02 564.29 310.37 564.06 322.1 563.83 333.83 563.61 345.56 563.4 357.3 563.23 369.03 563.11 380.76 563.02 392.49 563 404.23 563.02 415.96 563.1 427.69 563.22 439.43 563.39 451.16 563.59 462.89 563.81 474.63 564.04 486.36 564.27 498.09 554.13 502.98 543.98 507.69 533.83 512.33 523.67 517.01 513.5 521.86 503.32 526.95 493.13 532.36 482.93 538.12 472.71 544.23 462.49 550.67 452.24 557.37 441.99 564.26 431.72 571.24 421.44 578.22 411.15 585.09 400.84 591.79 390.65 586.51 380.44 580.98 370.22 575.15 359.99 568.99 349.74 562.51 339.48 555.76 329.21 548.81 318.92 541.74 308.62 534.65 298.31 527.66 287.99 520.86 277.66 514.35 267.32 508.19 256.97 502.41 246.62 497.02 236.26 491.96 236.03 480.05 235.8 468.13 235.58 456.21 235.38 444.29 235.21 432.38 235.09 420.46 235.01 408.54 234.99 396.63 235.01 384.71 235.1 372.79 235.22 360.87 235.39 348.96 235.6 337.04 235.82 325.12 236.05 313.21 236.28 301.29 246.64 293.96 256.99 287.09 267.34 280.79 277.68 275.09 288 270 298.32 265.45 308.63 261.31 318.93 257.45 329.21 253.67 339.48 249.79 349.74 245.6 359.98 240.96 370.21 235.73 380.43 229.85 395.73 219.69 400.83 216.1" stroke-dasharray="0 0" transform="rotate(0, 400, 400)" opacity="0.59"></path><path d="M400.94 263.06Q416.23 269.19 431.51 275.01 446.76 281.11 462 287.81 477.22 295.95 492.42 305.1 500.03 310.22 507.63 315.61 518.94 328.54 522.5 344.78 522.36 353.69 522.23 362.6 522.13 371.51 522.06 380.42 522.01 389.32 522 398.23 522.01 407.14 522.05 416.05 522.12 424.96 522.22 433.87 522.34 442.78 522.48 451.68 518.92 466.8 507.6 476.65 492.4 484.63 477.2 493.26 469.59 497.97 461.98 502.88 454.37 507.96 446.75 513.17 439.13 518.49 431.5 523.84 423.87 529.2 416.23 534.51 400.89 540.34 385.47 536.94 377.74 532.74 370 528.33 362.25 523.71 354.49 518.89 346.74 513.87 338.97 508.69 331.21 503.38 323.44 497.98 315.67 492.54 307.89 487.12 300.12 481.75 292.34 476.5 280.6 464.47 276.47 448.56 276.33 439.59 276.21 430.62 276.11 421.64 276.04 412.67 276 403.7 275.99 394.73 276 385.75 276.05 376.78 276.12 367.81 276.22 358.84 276.35 349.86 276.49 340.89 280.62 325.47 292.37 315.39 307.91 308.92 323.46 302.86 338.99 296.78 354.51 290.25 362.26 286.56 370.01 282.55 377.75 278.2 385.49 273.49 397.07 265.75 400.94 263.06" stroke-dasharray="0 0" transform="rotate(0, 400, 400)" opacity="0.73"></path><path d="M400.29 310.02Q410.42 314.34 420.56 318.41 430.69 322.4 440.83 326.5 450.97 330.85 461.11 335.6 471.25 340.84 481.4 346.62 481.23 358.59 481.11 370.55 481.02 382.52 481 394.49 481.02 406.46 481.1 418.43 481.22 430.4 481.39 442.37 471.23 448.52 461.09 455.08 450.94 462 440.81 469.16 430.67 476.45 420.54 483.74 410.4 490.92 400.27 497.86 389.9 492.78 379.53 487.35 369.17 481.51 358.8 475.26 348.44 468.61 338.08 461.62 327.72 454.37 317.38 446.98 317.21 435.13 317.09 423.28 317.01 411.44 316.99 399.59 317.01 387.75 317.1 375.9 317.22 364.05 317.39 352.21 327.74 348.11 338.1 343.93 348.46 339.5 358.82 334.68 369.19 329.36 379.56 323.48 395.1 313.52 400.29 310.02" stroke-dasharray="0 0" transform="rotate(0, 400, 400)" opacity="0.86"></path></g></svg>