<svg xmlns="http://www.w3.org/2000/svg" version="1.1" xmlns:xlink="http://www.w3.org/1999/xlink" xmlns:svgjs="http://svgjs.dev/svgjs" viewBox="0 0 800 800"><defs><linearGradient x1="50%" y1="0%" x2="50%" y2="100%" id="ccchaos-grad"><stop stop-color="hsl(230, 55%, 50%)" stop-opacity="1" offset="0%"></stop><stop stop-color="hsl(230, 55%, 70%)" stop-opacity="1" offset="100%"></stop></linearGradient></defs><g stroke-width="2" stroke="url(#ccchaos-grad)" fill="none" stroke-linecap="round"><path d="M399.06 63.84C410.38 65.06 421.57 67.21 432.59 70.18 443.61 73.32 454.46 77.05 465.13 81.22 475.8 85.26 486.27 89.56 496.54 94.03 506.8 98.15 516.85 102.37 526.67 106.67 536.48 110.59 546.06 114.63 555.38 118.82 564.7 122.75 573.76 126.94 582.53 131.44 591.31 135.84 599.81 140.67 607.99 145.94 616.18 151.27 624.06 157.12 631.59 163.49 639.13 169.99 646.32 177.03 653.14 184.58 659.96 192.28 666.4 200.47 672.43 209.11 678.45 217.86 684.05 227.02 689.2 236.54 694.33 246.13 699.01 256.03 703.2 266.2 707.37 276.41 711.04 286.86 714.19 297.5 717.32 308.15 719.93 318.99 721.99 329.96 724.03 340.93 725.53 352.04 726.48 363.25 727.41 374.45 727.8 385.76 727.62 397.15 727.45 408.54 726.73 419.74 725.49 430.73 724.28 441.73 722.55 452.52 720.33 463.1 718.15 473.69 715.48 484.07 712.34 494.22 709.23 504.4 705.65 514.35 701.63 524.08 697.62 533.84 693.15 543.37 688.25 552.67 683.36 562.01 678.02 571.12 672.27 579.97 666.51 588.88 660.33 597.53 653.75 605.91 647.16 614.33 640.17 622.47 632.82 630.29 625.45 638.13 617.7 645.65 609.62 652.79 601.53 659.92 593.1 666.65 584.36 672.95 575.61 679.2 566.55 684.99 557.22 690.27 547.89 695.48 538.28 700.17 528.42 704.32 518.57 708.38 508.47 711.89 498.16 714.84 487.84 717.73 477.32 720.08 466.61 721.86 455.91 723.63 445.02 724.88 433.97 725.6 422.93 726.36 411.74 726.63 400.41 726.39 389.09 726.24 377.91 725.6 366.9 724.52 355.89 723.52 345.05 722.06 334.41 720.16 323.76 718.31 313.31 716 303.09 713.21 292.86 710.44 282.85 707.18 273.08 703.42 263.31 699.63 253.79 695.32 244.54 690.51 235.28 685.63 226.29 680.24 217.59 674.37 208.88 668.41 200.46 661.97 192.35 655.08 184.23 648.12 176.43 640.72 168.96 632.94 161.48 625.11 154.33 616.91 147.55 608.37 140.76 599.82 134.34 590.95 128.31 581.81 122.27 572.67 116.63 563.26 111.43 553.61 106.23 543.98 101.47 534.11 97.18 524.03 92.91 513.98 89.12 503.71 85.84 493.25 82.58 482.8 79.85 472.17 77.66 461.35 75.51 450.54 73.91 439.56 72.88 428.41 71.88 417.27 71.45 405.96 71.62 394.51 71.8 383.06 72.56 371.74 73.86 360.59 75.16 349.43 76.99 338.45 79.31 327.66 81.62 316.89 84.42 306.34 87.68 296.04 90.92 285.78 94.62 275.79 98.75 266.13 102.86 256.51 107.41 247.24 112.37 238.36 117.32 229.55 122.69 221.13 128.46 213.15 134.22 205.24 140.39 197.76 146.94 190.72 153.49 183.72 160.42 177.12 167.72 170.92 175.03 164.67 182.7 158.76 190.71 153.14 198.73 147.36 207.09 141.79 215.76 136.4 224.43 130.74 233.42 125.19 242.69 119.76 251.96 114 261.51 108.36 271.32 102.87 281.13 97.15 291.18 91.69 301.46 86.58 311.74 81.46 322.23 76.89 332.92 72.98 343.6 69.34 354.48 66.56 365.51 64.74 376.54 63.39 387.73 63.08 399.05 63.84" stroke-dasharray="0 0" transform="rotate(0, 400, 400)" opacity="0.05"></path><path d="M399.04 105.25C408.95 106.24 418.74 108 428.39 110.45 438.05 113.06 447.56 116.21 456.92 119.8 466.27 123.35 475.46 127.22 484.47 131.33 493.48 135.25 502.31 139.33 510.93 143.55 519.56 147.51 527.98 151.6 536.16 155.82 544.36 159.81 552.32 163.99 560.03 168.36 567.74 172.58 575.2 177.07 582.39 181.86 589.57 186.58 596.47 191.66 603.07 197.09 609.67 202.54 615.96 208.39 621.92 214.62 627.87 220.92 633.48 227.61 638.73 234.68 643.97 241.82 648.83 249.33 653.3 257.17 657.75 265.08 661.81 273.3 665.44 281.81 669.04 290.36 672.22 299.17 674.95 308.21 677.66 317.27 679.92 326.55 681.71 336 683.49 345.47 684.8 355.1 685.62 364.87 686.44 374.65 686.78 384.55 686.62 394.57 686.47 404.59 685.84 414.47 684.75 424.21 683.67 433.96 682.15 443.55 680.19 452.98 678.25 462.43 675.89 471.71 673.12 480.81 670.37 489.93 667.21 498.88 663.66 507.64 660.13 516.42 656.2 525.02 651.89 533.41 647.6 541.82 642.93 550.02 637.89 558 632.86 566 627.47 573.76 621.74 581.27 616 588.78 609.92 596.01 603.52 602.95 597.11 609.86 590.38 616.46 583.35 622.71 576.32 628.91 568.99 634.74 561.39 640.17 553.78 645.53 545.91 650.48 537.79 654.97 529.66 659.38 521.29 663.34 512.7 666.82 504.11 670.23 495.31 673.17 486.31 675.62 477.31 678.03 468.12 679.97 458.77 681.43 449.42 682.89 439.9 683.9 430.25 684.46 420.59 685.06 410.8 685.24 400.89 684.98 390.99 684.81 381.2 684.22 371.56 683.25 361.92 682.36 352.42 681.08 343.09 679.42 333.76 677.82 324.59 675.83 315.62 673.44 306.64 671.09 297.85 668.32 289.28 665.13 280.7 661.94 272.32 658.31 264.18 654.26 256.04 650.17 248.12 645.64 240.46 640.69 232.8 635.68 225.38 630.25 218.24 624.41 211.09 618.52 204.21 612.23 197.64 605.57 191.06 598.86 184.77 591.81 178.81 584.43 172.85 577.02 167.21 569.3 161.93 561.31 156.64 553.3 151.72 545.03 147.17 536.53 142.64 528.02 138.49 519.3 134.77 510.38 131.06 501.46 127.77 492.35 124.93 483.09 122.11 473.82 119.74 464.39 117.85 454.84 115.99 445.28 114.6 435.59 113.71 425.79 112.84 415.99 112.47 406.08 112.62 396.1 112.78 386.11 113.44 376.29 114.58 366.65 115.72 357.01 117.32 347.57 119.37 338.35 121.41 329.15 123.88 320.17 126.76 311.45 129.62 302.75 132.89 294.31 136.54 286.17 140.17 278.05 144.19 270.23 148.58 262.73 152.94 255.25 157.68 248.07 162.76 241.22 167.82 234.37 173.24 227.81 178.99 221.56 184.73 215.26 190.81 209.23 197.19 203.45 203.58 197.56 210.27 191.88 217.26 186.39 224.26 180.73 231.54 175.23 239.1 169.87 246.65 164.31 254.48 158.89 262.56 153.62 270.63 148.16 278.96 142.89 287.5 137.87 296.05 132.76 304.82 127.97 313.78 123.59 322.74 119.28 331.9 115.5 341.23 112.35 350.56 109.43 360.06 107.23 369.7 105.84 379.34 104.79 389.13 104.59 399.03 105.25" stroke-dasharray="0 0" transform="rotate(0, 400, 400)" opacity="0.19"></path><path d="M399.45 146.66C407.94 147.44 416.34 148.85 424.62 150.83 432.9 152.93 441.07 155.51 449.1 158.51 457.13 161.51 465.03 164.85 472.77 168.46 480.51 171.98 488.09 175.72 495.5 179.64 502.91 183.41 510.14 187.34 517.17 191.42 524.21 195.34 531.04 199.41 537.66 203.64 544.28 207.72 550.67 212 556.83 216.47 562.98 220.85 568.89 225.46 574.53 230.31 580.17 235.1 585.53 240.17 590.61 245.5 595.68 250.83 600.46 256.44 604.92 262.33 609.38 268.23 613.51 274.42 617.3 280.89 621.08 287.37 624.52 294.13 627.6 301.14 630.66 308.17 633.36 315.45 635.68 322.95 637.98 330.46 639.9 338.19 641.43 346.11 642.94 354.04 644.06 362.16 644.76 370.43 645.46 378.71 645.76 387.14 645.62 395.7 645.49 404.27 644.95 412.77 644.01 421.17 643.08 429.57 641.76 437.87 640.06 446.06 638.38 454.25 636.34 462.33 633.94 470.27 631.55 478.21 628.82 486.02 625.75 493.67 622.69 501.32 619.3 508.81 615.58 516.12 611.88 523.43 607.86 530.55 603.53 537.47 599.21 544.37 594.58 551.06 589.67 557.5 584.76 563.92 579.56 570.08 574.08 575.97 568.61 581.81 562.86 587.37 556.87 592.6 550.87 597.78 544.62 602.63 538.13 607.12 531.65 611.55 524.93 615.62 518 619.3 511.07 622.92 503.93 626.15 496.6 628.98 489.27 631.76 481.75 634.15 474.06 636.13 466.38 638.09 458.52 639.66 450.52 640.83 442.52 642.02 434.38 642.82 426.12 643.25 417.85 643.72 409.46 643.83 400.97 643.57 392.48 643.39 384.08 642.85 375.81 641.98 367.54 641.19 359.38 640.07 351.37 638.62 343.35 637.25 335.47 635.54 327.75 633.5 320.04 631.51 312.47 629.17 305.09 626.5 297.7 623.84 290.49 620.83 283.48 617.48 276.47 614.11 269.65 610.38 263.05 606.31 256.44 602.21 250.06 597.76 243.91 592.97 237.75 588.13 231.84 582.97 226.18 577.49 220.53 571.96 215.13 566.12 210.02 560.01 204.9 553.85 200.08 547.41 195.56 540.73 191.04 534.02 186.84 527.06 182.96 519.9 179.1 512.71 175.58 505.32 172.41 497.75 169.25 490.16 166.46 482.41 164.05 474.52 161.66 466.61 159.66 458.57 158.06 450.41 156.47 442.25 155.3 433.98 154.55 425.63 153.81 417.28 153.49 408.85 153.62 400.36 153.75 391.88 154.32 383.54 155.3 375.38 156.28 367.22 157.66 359.24 159.42 351.44 161.17 343.66 163.3 336.07 165.79 328.69 168.27 321.32 171.1 314.15 174.26 307.21 177.41 300.27 180.89 293.55 184.68 287.05 188.46 280.53 192.55 274.23 196.94 268.15 201.32 262.03 206 256.1 210.96 250.37 215.9 244.57 221.13 238.95 226.62 233.5 232.11 227.95 237.86 222.55 243.86 217.31 249.86 211.95 256.1 206.73 262.57 201.68 269.04 196.51 275.74 191.52 282.65 186.72 289.56 181.85 296.67 177.22 303.98 172.88 311.29 168.54 318.79 164.55 326.45 160.97 334.12 157.48 341.95 154.47 349.94 152.01 357.92 149.73 366.05 148.05 374.31 147.02 382.57 146.23 390.95 146.1 399.44 146.66" stroke-dasharray="0 0" transform="rotate(0, 400, 400)" opacity="0.32"></path><path d="M400.1 188.07C407.18 188.67 414.18 189.76 421.08 191.3 427.98 192.94 434.79 194.98 441.48 197.38 448.18 199.81 454.76 202.56 461.21 205.58 467.66 208.56 473.98 211.79 480.15 215.22 486.33 218.58 492.35 222.12 498.2 225.83 504.06 229.44 509.75 233.22 515.25 237.14 520.75 240.96 526.06 244.94 531.17 249.07 536.27 253.12 541.17 257.34 545.84 261.71 550.51 266.03 554.96 270.53 559.16 275.21 563.35 279.85 567.3 284.68 570.98 289.7 574.66 294.71 578.07 299.91 581.2 305.31 584.32 310.7 587.16 316.29 589.7 322.07 592.23 327.85 594.46 333.83 596.37 339.98 598.28 346.13 599.87 352.47 601.13 358.96 602.39 365.47 603.32 372.13 603.9 378.94 604.49 385.75 604.73 392.7 604.62 399.78 604.51 406.86 604.06 413.89 603.27 420.86 602.49 427.83 601.38 434.73 599.95 441.55 598.54 448.36 596.81 455.08 594.79 461.69 592.78 468.29 590.48 474.78 587.89 481.13 585.32 487.48 582.47 493.68 579.35 499.73 576.24 505.75 572.86 511.62 569.23 517.29 565.61 522.94 561.74 528.4 557.63 533.64 553.52 538.85 549.18 543.83 544.61 548.57 540.05 553.27 535.26 557.72 530.27 561.89 525.28 566.03 520.08 569.88 514.68 573.43 509.29 576.95 503.71 580.16 497.95 583.06 492.19 585.93 486.26 588.48 480.17 590.71 474.08 592.91 467.83 594.8 461.44 596.36 455.05 597.92 448.52 599.17 441.86 600.09 435.21 601.03 428.43 601.66 421.55 601.98 414.67 602.35 407.68 602.41 400.61 602.16 393.53 601.98 386.53 601.49 379.63 600.73 372.73 600.04 365.93 599.06 359.24 597.82 352.54 596.64 345.97 595.18 339.52 593.46 333.07 591.78 326.75 589.83 320.58 587.61 314.41 585.42 308.38 582.94 302.52 580.2 296.66 577.47 290.97 574.45 285.45 571.17 279.94 567.88 274.61 564.31 269.47 560.48 264.34 556.63 259.41 552.51 254.7 548.14 249.99 543.74 245.5 539.1 241.25 534.21 237.01 529.3 233 524.16 229.26 518.81 225.51 513.43 222.03 507.84 218.83 502.07 215.64 496.27 212.73 490.3 210.11 484.16 207.51 478.01 205.21 471.71 203.23 465.27 201.25 458.82 199.6 452.25 198.28 445.57 196.97 438.88 196 432.09 195.38 425.21 194.77 418.34 194.51 411.39 194.62 404.37 194.73 397.36 195.21 390.46 196.02 383.68 196.83 376.9 197.99 370.24 199.46 363.72 200.93 357.2 202.72 350.82 204.8 344.58 206.88 338.34 209.26 332.23 211.92 326.28 214.56 320.32 217.49 314.49 220.68 308.82 223.87 303.12 227.31 297.56 231 292.14 234.69 286.69 238.62 281.37 242.78 276.2 246.94 270.97 251.33 265.87 255.93 260.92 260.53 255.91 265.35 251.03 270.37 246.31 275.39 241.53 280.61 236.9 286.01 232.46 291.42 227.98 297.01 223.69 302.77 219.63 308.54 215.56 314.47 211.75 320.56 208.22 326.65 204.74 332.9 201.58 339.29 198.79 345.67 196.1 352.2 193.81 358.85 191.96 365.5 190.25 372.27 189.01 379.15 188.27 386.03 187.69 393.02 187.61 400.09 188.07" stroke-dasharray="0 0" transform="rotate(0, 400, 400)" opacity="0.46"></path><path d="M400.71 229.48C412.03 230.45 423.09 232.85 433.79 236.46 444.49 240.2 454.82 244.98 464.67 250.58 474.52 256.09 483.88 262.32 492.64 269.13 501.39 275.75 509.53 282.95 516.96 290.62 524.37 298.13 531.05 306.19 536.9 314.73 542.72 323.18 547.7 332.17 551.74 341.65 555.75 351.1 558.82 361.07 560.83 371.48 562.84 381.89 563.8 392.76 563.62 403.99 563.45 415.22 562.16 426.27 559.86 437.01 557.58 447.73 554.3 458.13 550.11 468.05 545.96 477.94 540.9 487.33 535.04 496.09 529.21 504.78 522.57 512.8 515.22 520.03 507.89 527.16 499.86 533.49 491.21 538.88 482.58 544.2 473.34 548.6 463.59 552 453.85 555.38 443.6 557.81 432.97 559.22 422.33 560.7 411.29 561.24 399.97 560.75 388.65 560.45 377.57 559.18 366.86 557.05 356.15 555.1 345.8 552.26 335.92 548.6 326.04 545.06 316.64 540.65 307.83 535.43 299.02 530.26 290.8 524.24 283.29 517.46 275.8 510.67 269.01 503.09 263.06 494.84 257.13 486.56 252.03 477.6 247.89 468.09 243.77 458.55 240.61 448.48 238.52 437.98 236.46 427.48 235.45 416.58 235.62 405.38 235.8 394.18 237.13 383.22 239.49 372.6 241.85 361.95 245.23 351.62 249.51 341.69 253.78 331.71 258.95 322.09 264.91 312.91 270.86 303.64 277.6 294.79 285.03 286.46 292.44 278.05 300.55 270.19 309.25 263.02 317.94 255.87 327.22 249.5 337 244.13 346.77 238.95 357.03 234.9 367.68 232.18 378.34 229.81 389.38 228.87 400.7 229.48" stroke-dasharray="0 0" transform="rotate(0, 400, 400)" opacity="0.59"></path><path d="M400.99 270.89C409.48 271.54 417.77 273.21 425.78 275.77 433.79 278.42 441.51 281.88 448.87 286.02 456.22 290.17 463.21 294.94 469.73 300.22 476.26 305.45 482.32 311.17 487.84 317.29 493.36 323.34 498.33 329.81 502.68 336.61 507.02 343.36 510.73 350.47 513.73 357.88 516.73 365.26 519.02 372.96 520.53 380.91 522.03 388.85 522.76 397.06 522.62 405.46 522.49 413.86 521.52 422.04 519.78 429.94 518.06 437.83 515.57 445.41 512.4 452.61 509.25 459.78 505.42 466.55 500.99 472.82 496.57 479.07 491.55 484.81 486 489.95 480.47 495.07 474.4 499.59 467.89 503.44 461.39 507.28 454.43 510.47 447.11 512.93 439.78 515.42 432.09 517.21 424.1 518.24 416.12 519.35 407.84 519.73 399.34 519.34 390.85 519.07 382.55 518.04 374.52 516.35 366.49 514.78 358.74 512.53 351.35 509.66 343.96 506.88 336.93 503.46 330.35 499.47 323.77 495.53 317.64 490.99 312.05 485.9 306.47 480.85 301.42 475.23 297 469.12 292.59 463.02 288.81 456.42 285.73 449.39 282.68 442.37 280.33 434.91 278.78 427.1 277.24 419.3 276.49 411.14 276.62 402.69 276.76 394.25 277.75 385.91 279.52 377.77 281.29 369.62 283.84 361.66 287.06 353.96 290.28 346.25 294.19 338.79 298.69 331.69 303.19 324.57 308.28 317.8 313.89 311.49 319.5 305.19 325.62 299.37 332.19 294.15 338.75 289 345.75 284.49 353.11 280.77 360.47 277.19 368.2 274.44 376.2 272.64 384.21 271.04 392.5 270.42 400.99 270.89" stroke-dasharray="0 0" transform="rotate(0, 400, 400)" opacity="0.73"></path><path d="M400.83 312.3C412.15 313.15 422.91 316.52 432.68 321.81 442.44 327.2 451.2 334.35 458.53 342.73 465.84 351.06 471.71 360.57 475.7 370.79 479.68 380.98 481.8 391.93 481.62 403.18 481.45 414.42 479.02 424.93 474.76 434.3 470.52 443.66 464.45 451.88 457 458.54 449.56 465.21 440.72 470.37 430.91 473.63 421.11 476.98 410.33 478.54 399.01 477.93 387.69 477.55 376.9 475.1 367.08 470.98 357.27 467.06 348.44 461.39 341.04 454.36 333.65 447.43 327.71 439.04 323.65 429.55 319.61 420.11 317.45 409.51 317.62 398.15 317.8 386.79 320.27 375.7 324.59 365.39 328.89 355.08 335.04 345.58 342.56 337.42 350.08 329.36 358.99 322.76 368.84 318.2 378.7 313.89 389.5 311.76 400.83 312.3" stroke-dasharray="0 0" transform="rotate(0, 400, 400)" opacity="0.86"></path></g></svg>